<svg xmlns="http://www.w3.org/2000/svg" xmlns:xlink="http://www.w3.org/1999/xlink" width="260" height="260" viewBox="0 0 260 260">
  <defs>
    <clipPath id="clip-path">
      <rect id="Rectangle_458" data-name="Rectangle 458" width="221.736" height="180.528" fill="none"/>
    </clipPath>
  </defs>
  <g id="Large-Groups-Blue" transform="translate(-4528 -5120)">
    <rect id="Rectangle_339" data-name="Rectangle 339" width="260" height="260" transform="translate(4528 5120)" fill="none"/>
    <g id="Group_113" data-name="Group 113" transform="translate(4547.132 5159.736)">
      <g id="Group_112" data-name="Group 112" transform="translate(0 0)" clip-path="url(#clip-path)">
        <path id="Path_214" data-name="Path 214" d="M55.96,4.22c-17.994,6.329-30.495,17.1-39.235,26.393a5.41,5.41,0,0,0,0,7.429C25.465,47.331,37.966,58.1,55.96,64.432c27.3,9.595,59.678,4.154,59.678-30.106S83.256-5.374,55.96,4.22m40.4,48.407c-7.861,5.566-22.206,5.907-36.555.86a84.1,84.1,0,0,1-29.7-18.45.973.973,0,0,1,0-1.417,84.108,84.108,0,0,1,29.7-18.455c14.344-5.042,28.694-4.7,36.555.864,5.162,3.659,7.674,9.648,7.674,18.3s-2.512,14.642-7.674,18.3" transform="translate(57.979 -0.001)" fill="#08354a"/>
        <path id="Path_215" data-name="Path 215" d="M55.96,27.516c-17.994,6.329-30.495,17.1-39.235,26.393a5.41,5.41,0,0,0,0,7.429C25.465,70.627,37.966,81.4,55.96,87.728c27.3,9.595,59.678,4.154,59.678-30.106S83.256,17.922,55.96,27.516m40.4,48.407c-7.861,5.566-22.206,5.907-36.555.86a84.1,84.1,0,0,1-29.7-18.45.972.972,0,0,1,0-1.417,84.108,84.108,0,0,1,29.7-18.455c14.344-5.042,28.694-4.706,36.555.864,5.162,3.659,7.674,9.643,7.674,18.3s-2.512,14.642-7.674,18.3" transform="translate(57.979 88.577)" fill="#08354a"/>
        <path id="Path_216" data-name="Path 216" d="M100.389,45.974c0-34.255-32.382-39.7-59.678-30.106C22.717,22.2,10.216,32.969,1.476,42.262a5.41,5.41,0,0,0,0,7.429c8.74,9.288,21.241,20.059,39.235,26.389,27.3,9.595,59.678,4.154,59.678-30.106m-19.276,18.3c-7.861,5.566-22.206,5.907-36.555.86a84.059,84.059,0,0,1-29.7-18.45.973.973,0,0,1,0-1.417,84.064,84.064,0,0,1,29.7-18.455c14.344-5.042,28.694-4.706,36.555.864,5.162,3.659,7.674,9.643,7.674,18.3s-2.512,14.642-7.674,18.3" transform="translate(-0.002 44.288)" fill="#08354a"/>
        <path id="Path_217" data-name="Path 217" d="M49.908,22.756a4.8,4.8,0,1,0-4.8,4.8,4.786,4.786,0,0,0,4.8-4.8" transform="translate(153.244 68.265)" fill="#08354a"/>
        <path id="Path_218" data-name="Path 218" d="M42.168,22.756a4.8,4.8,0,1,0-4.8,4.8,4.786,4.786,0,0,0,4.8-4.8" transform="translate(123.814 68.265)" fill="#08354a"/>
        <path id="Path_219" data-name="Path 219" d="M46.038,22.756a4.8,4.8,0,1,0-4.8,4.8,4.786,4.786,0,0,0,4.8-4.8" transform="translate(138.529 68.265)" fill="#08354a"/>
        <path id="Path_220" data-name="Path 220" d="M53.678,21.815a5.814,5.814,0,0,0-.24-.912,8.97,8.97,0,0,0-.475-.816,4.29,4.29,0,0,0-.586-.72,4.567,4.567,0,0,0-1.58-1.057,4.8,4.8,0,0,0-3.65,0,5.691,5.691,0,0,0-1.58,1.057c-.192.24-.394.48-.586.72a3.158,3.158,0,0,0-.423.816,2.928,2.928,0,0,0-.293.912,5.91,5.91,0,0,0-.091.96,4.607,4.607,0,0,0,.384,1.825,4.668,4.668,0,0,0,1.008,1.537,4.671,4.671,0,0,0,5.23,1.057,3.987,3.987,0,0,0,1.58-1.057A4.89,4.89,0,0,0,53.438,24.6a4.738,4.738,0,0,0,.341-1.825,3.118,3.118,0,0,0-.1-.96" transform="translate(167.962 68.246)" fill="#08354a"/>
        <path id="Path_221" data-name="Path 221" d="M28.327,27.555H53.054c.034,0,.053.019.086.019a4.976,4.976,0,0,0,1.825-.384l.019-.01a4.809,4.809,0,0,0,2.358-2.257,4.634,4.634,0,0,0,.6-2.151,3.328,3.328,0,0,0-.144-.96,5.818,5.818,0,0,0-.24-.912c-.139-.288-.288-.528-.432-.816-.173-.216-.355-.432-.562-.648a4.574,4.574,0,0,0-.975-.7,4.364,4.364,0,0,0-.624-.427,4.919,4.919,0,0,0-1.878-.355H28.327a4.8,4.8,0,1,0,0,9.6" transform="translate(89.449 68.249)" fill="#08354a"/>
        <path id="Path_222" data-name="Path 222" d="M58.754,12.251H42a4.8,4.8,0,1,0,0,9.6H58.754a4.8,4.8,0,0,0,0-9.6" transform="translate(141.434 46.58)" fill="#08354a"/>
        <path id="Path_223" data-name="Path 223" d="M58.754,23.649H42a4.8,4.8,0,1,0,0,9.6H58.754a4.8,4.8,0,0,0,0-9.6" transform="translate(141.434 89.919)" fill="#08354a"/>
      </g>
    </g>
  </g>
</svg>
