<svg xmlns="http://www.w3.org/2000/svg" width="260" height="260" viewBox="0 0 260 260">
  <g id="self-captain" transform="translate(-2625 -4153)">
    <path id="Path_84" data-name="Path 84" d="M269.084,129.192h0l-6.647-3.832a76.865,76.865,0,0,0,0-49.346l6.647-3.836h0a15.6,15.6,0,0,0-15.6-27.013l-6.7,3.868a77.917,77.917,0,0,0-42.671-24.761V16.658a15.6,15.6,0,0,0-31.2,0v7.611a77.958,77.958,0,0,0-42.675,24.765l-6.7-3.868h0a15.6,15.6,0,0,0-15.594,27.013l6.643,3.836a76.937,76.937,0,0,0,0,49.346l-6.643,3.832h0a15.6,15.6,0,0,0-5.651,21.325,15.442,15.442,0,0,0,9.447,7.247,15.6,15.6,0,0,0,4.051.54,15.446,15.446,0,0,0,7.755-2.1l6.7-3.868a77.92,77.92,0,0,0,42.679,24.765v7.611a15.6,15.6,0,0,0,31.2,0v-7.611a77.91,77.91,0,0,0,42.675-24.765l6.7,3.868a15.435,15.435,0,0,0,7.755,2.1,15.617,15.617,0,0,0,7.847-29.112m-12-77.794a8.4,8.4,0,0,1,8.4,14.55L261.2,68.42a79.427,79.427,0,0,0-8.363-14.57ZM108.521,54.461A8.363,8.363,0,0,1,119.935,51.4l4.251,2.452a79.541,79.541,0,0,0-8.367,14.57l-4.279-2.472a8.386,8.386,0,0,1-3.02-11.487m11.415,95.516a8.4,8.4,0,0,1-8.395-14.55l4.279-2.472a79.375,79.375,0,0,0,8.367,14.566Zm68.611-36.9h-.076A12.363,12.363,0,0,1,177.84,106.9c-.016-.032-.016-.068-.032-.1l-.048-.056a11.99,11.99,0,0,1,.14-12.378.831.831,0,0,0,.056-.068l.016-.064a12.366,12.366,0,0,1,10.5-5.939h.076a12.368,12.368,0,0,1,10.535,6l.016.068c.016.028.044.048.06.072a12,12,0,0,1,.056,12.39l-.04.044c-.016.024-.012.056-.028.08a12.357,12.357,0,0,1-10.6,6.127m3.6-31.624V50.878a49.99,49.99,0,0,1,37.7,21.741L203.285,87.957a19.52,19.52,0,0,0-11.139-6.5m-7.275-30.58v30.58a19.52,19.52,0,0,0-11.139,6.5L147.168,72.619a49.99,49.99,0,0,1,37.7-21.741M170.085,94.252a18.254,18.254,0,0,0,0,12.87L143.56,122.437a49.392,49.392,0,0,1,0-43.495Zm3.647,19.166a19.491,19.491,0,0,0,11.139,6.5V150.5a49.985,49.985,0,0,1-37.7-21.737ZM192.146,150.5V119.921a19.507,19.507,0,0,0,11.139-6.5l26.569,15.334A49.99,49.99,0,0,1,192.146,150.5m14.786-43.379a18.244,18.244,0,0,0,0-12.866l26.525-15.31a49.375,49.375,0,0,1,0,43.495ZM180.112,16.658a8.4,8.4,0,0,1,16.8,0v4.947a69.694,69.694,0,0,0-16.8,0Zm16.8,168.059a8.4,8.4,0,0,1-16.8,0V179.77a68.227,68.227,0,0,0,16.8,0Zm71.591-37.8a8.353,8.353,0,0,1-11.415,3.06l-4.251-2.456a79.394,79.394,0,0,0,8.363-14.566l4.283,2.472a8.389,8.389,0,0,1,3.02,11.491" transform="translate(2566.835 4181.9)" fill="#08354a"/>
    <rect id="Rectangle_336" data-name="Rectangle 336" width="260" height="260" transform="translate(2625 4153)" fill="none"/>
  </g>
</svg>
