<svg xmlns="http://www.w3.org/2000/svg" width="260" height="260" viewBox="0 0 260 260">
  <g id="jump-in" transform="translate(-3316 -4153)">
    <path id="Union_55" data-name="Union 55" d="M151.065,156.416c-2.7-1.859-6.7-4.62-8.374-4.62s-5.7,2.772-8.359,4.612c-4.315,2.98-8.767,6.055-12.974,6.055s-8.651-3.075-12.955-6.047c-2.7-1.859-6.7-4.62-8.375-4.62s-5.684,2.76-8.331,4.587c-4.347,3-8.8,6.079-13,6.079s-8.654-3.075-12.966-6.047c-2.668-1.848-6.687-4.62-8.366-4.62s-5.683,2.76-8.331,4.587c-4.347,3-8.8,6.079-13,6.079a4,4,0,0,1-4-4,4.065,4.065,0,0,1,4-4.08c1.672,0,5.68-2.759,8.328-4.587,4.347-3,8.8-6.079,13-6.079s8.654,3.075,12.962,6.047c2.668,1.848,6.687,4.619,8.371,4.619s5.68-2.759,8.327-4.587c4.348-3,8.8-6.079,13-6.079s8.651,3.075,12.954,6.047c2.7,1.859,6.7,4.619,8.375,4.619s5.7-2.771,8.359-4.611c4.319-2.98,8.766-6.055,12.974-6.055s8.651,3.075,12.954,6.047c2.7,1.859,6.7,4.619,8.375,4.619a4,4,0,0,1,4,4,4.065,4.065,0,0,1-4,4.08C159.816,162.464,155.369,159.388,151.065,156.416Zm0-24c-2.7-1.859-6.7-4.619-8.374-4.619-1.687,0-5.707,2.771-8.363,4.612-4.312,2.979-8.767,6.055-12.974,6.055s-8.651-3.076-12.955-6.048c-2.7-1.859-6.7-4.619-8.375-4.619s-5.684,2.759-8.328,4.587c-4.347,3-8.8,6.079-13,6.079s-8.654-3.076-12.962-6.048c-2.672-1.848-6.687-4.619-8.371-4.619s-5.68,2.759-8.331,4.587c-4.347,3-8.795,6.079-13,6.079s-8.655-3.076-12.959-6.048c-2.691-1.859-6.7-4.619-8.371-4.619a6.639,6.639,0,0,0-6.631,6.627,4,4,0,0,1-4,4,4.066,4.066,0,0,1-4.075-4,14.72,14.72,0,0,1,14.706-14.706c4.2,0,8.655,3.075,12.955,6.047,2.692,1.86,6.7,4.62,8.375,4.62s5.679-2.759,8.327-4.587c4.347-3,8.8-6.079,13-6.079,3.839,0,7.875,2.56,11.826,5.268V88.649l-50.957-55.7a14.085,14.085,0,0,1,.067-19.79,14.425,14.425,0,0,1,19.854,0L81.674,56.681h36.711L161.9,13.158a14.425,14.425,0,0,1,19.854,0,14.083,14.083,0,0,1,0,19.849L130.867,88.649v36.335c3.948-2.707,7.988-5.263,11.827-5.263,4.2,0,8.651,3.075,12.95,6.047,2.7,1.86,6.7,4.62,8.375,4.62s5.679-2.759,8.33-4.587c4.348-3,8.8-6.079,13-6.079a14.72,14.72,0,0,1,14.706,14.706,4,4,0,0,1-4,4,4.064,4.064,0,0,1-4.075-4,6.636,6.636,0,0,0-6.631-6.627c-1.676,0-5.679,2.759-8.331,4.587-4.347,3-8.795,6.079-13,6.079S155.369,135.391,151.069,132.419ZM74.03,26a26,26,0,1,1,26,26A26.027,26.027,0,0,1,74.03,26Z" transform="translate(3346 4202)" fill="#08354a" stroke="rgba(0,0,0,0)" stroke-miterlimit="10" stroke-width="1"/>
    <rect id="Rectangle_338" data-name="Rectangle 338" width="260" height="260" transform="translate(3316 4153)" fill="none"/>
  </g>
</svg>
