<svg xmlns="http://www.w3.org/2000/svg" width="260" height="260" viewBox="0 0 260 260">
  <g id="temperature" transform="translate(-2985 -4153)">
    <path id="Union_54" data-name="Union 54" d="M0,155.981a52.04,52.04,0,0,1,16-37.444V36a36,36,0,1,1,71.991,0v82.542A51.971,51.971,0,1,1,0,155.981ZM24,36v84.281a3.984,3.984,0,0,1-1.332,2.975,43.995,43.995,0,1,0,58.657,0,3.987,3.987,0,0,1-1.331-2.975V36A28,28,0,0,0,24,36ZM20,155.981a31.573,31.573,0,0,1,10.683-23.79L36,127.42V36a16,16,0,0,1,32,0V127.42l5.315,4.771a31.573,31.573,0,0,1,10.683,23.79,32,32,0,0,1-63.993,0ZM43.995,36v28h16V36a8,8,0,1,0-16,0Zm59.992,84.029a4,4,0,0,1-4-4,4.068,4.068,0,0,1,4-4.08h16a4,4,0,0,1,4,4,4.067,4.067,0,0,1-4,4.08Zm0-20a4,4,0,0,1-4-4,4.067,4.067,0,0,1,4-4.08h8a4,4,0,0,1,4,4,4.068,4.068,0,0,1-4,4.08Zm0-20a4,4,0,0,1-4-4,4.068,4.068,0,0,1,4-4.08h16a4,4,0,0,1,4,4,4.067,4.067,0,0,1-4,4.08Zm0-20a4,4,0,0,1-4-4,4.067,4.067,0,0,1,4-4.079h8a4,4,0,0,1,4,4,4.067,4.067,0,0,1-4,4.08Zm0-20a4,4,0,0,1-4-4,4.067,4.067,0,0,1,4-4.08h16a4,4,0,0,1,4,4,4.067,4.067,0,0,1-4,4.08Z" transform="translate(3053 4179)" fill="#08354a" stroke="rgba(0,0,0,0)" stroke-miterlimit="10" stroke-width="1"/>
    <rect id="Rectangle_337" data-name="Rectangle 337" width="260" height="260" transform="translate(2985 4153)" fill="none"/>
  </g>
</svg>
