<svg xmlns="http://www.w3.org/2000/svg" width="260" height="260" viewBox="0 0 260 260">
  <g id="views" transform="translate(-3664 -4153)">
    <path id="Union_56" data-name="Union 56" d="M152.734,151.929c-2.7-1.859-6.7-4.62-8.374-4.62s-5.7,2.772-8.359,4.612c-4.316,2.98-8.767,6.055-12.974,6.055s-8.651-3.075-12.955-6.047c-2.7-1.859-6.7-4.62-8.374-4.62s-5.679,2.76-8.331,4.588c-4.347,3-8.795,6.079-13,6.079S71.708,154.9,67.4,151.929c-2.668-1.848-6.687-4.62-8.371-4.62s-5.68,2.76-8.331,4.588c-4.347,3-8.795,6.079-13,6.079a4,4,0,0,1-4-4,4.064,4.064,0,0,1,4-4.079c1.676,0,5.679-2.76,8.33-4.588,4.348-3,8.795-6.079,13-6.079s8.659,3.075,12.963,6.047c2.668,1.848,6.687,4.62,8.37,4.62s5.68-2.76,8.331-4.588c4.348-3,8.795-6.079,13-6.079s8.651,3.075,12.955,6.047c2.7,1.859,6.7,4.62,8.375,4.62s5.7-2.772,8.359-4.612c4.316-2.98,8.767-6.055,12.974-6.055s8.651,3.075,12.954,6.047c2.7,1.859,6.7,4.62,8.375,4.62a4,4,0,0,1,4,4,4.065,4.065,0,0,1-4,4.08C161.484,157.976,157.037,154.9,152.734,151.929Zm0-24c-2.692-1.86-6.7-4.62-8.371-4.62s-5.7,2.772-8.359,4.612c-4.316,2.98-8.767,6.055-12.974,6.055s-8.651-3.075-12.958-6.047c-2.692-1.86-6.7-4.62-8.371-4.62s-5.679,2.759-8.331,4.587c-4.347,3-8.795,6.079-13,6.079S71.708,130.9,67.4,127.932c-2.668-1.848-6.687-4.62-8.371-4.62s-5.68,2.759-8.331,4.587c-4.347,3-8.795,6.079-13,6.079s-8.652-3.075-12.959-6.047c-2.691-1.86-6.7-4.62-8.371-4.62a6.633,6.633,0,0,0-6.627,6.628,4,4,0,0,1-4,4,4.064,4.064,0,0,1-4.08-4,14.644,14.644,0,0,1,5.9-11.707V84.55a4,4,0,0,1,4-4h29.04a4,4,0,0,1,4,4v37.735c.5-.336.984-.668,1.424-.972,1.44-1,2.892-1.992,4.343-2.887V88.605h19.73a4.028,4.028,0,1,0,0-8.055H50.378V71.183h19.73a4.029,4.029,0,1,0,0-8.059H50.378V52.169a4,4,0,0,1,4-4H95.041a4,4,0,0,1,4,4v63.464a10.266,10.266,0,0,1,2.656-.4c.067,0,.136.016.2.021V67.091a4,4,0,0,1,4-4h29.045a4,4,0,0,1,4,4V116.65l.139-.065a3.907,3.907,0,0,1,.324-2.395c.113-.216,10.927-21.518,10.927-37.2,0-12.958-7.327-32.235-10.035-38.922h-5.355a4,4,0,0,1,0-8h2.987a3.922,3.922,0,0,1,1.276-3.412l7.979-6.979a4,4,0,0,1,2.632-.988h3.191V12a4,4,0,0,1,8,0v6.692h2.155a3.992,3.992,0,0,1,2.448.836l9.014,6.979a3.941,3.941,0,0,1,1.46,3.564h1.952a4,4,0,0,1,0,8h-4.32c-2.712,6.687-10.035,25.964-10.035,38.922,0,14.311,11.343,37.944,13.447,42.207,3.335-2.18,6.683-3.968,9.887-3.968a14.726,14.726,0,0,1,14.706,14.707,4,4,0,0,1-4,4,4.064,4.064,0,0,1-4.079-4,6.633,6.633,0,0,0-6.628-6.628c-1.676,0-5.679,2.759-8.33,4.587-4.348,3-8.8,6.079-13,6.079S157.037,130.9,152.73,127.932Zm-5.188-12.171c3.227,1,6.539,3.288,9.77,5.52,2.7,1.859,6.7,4.619,8.375,4.619,1.02,0,2.908-1.028,4.823-2.244-2.228-4.468-10.859-22.269-13.5-35.123A128.905,128.905,0,0,1,147.542,115.762Zm9.467-50.726a166.59,166.59,0,0,1,8.1-26.964h-16.2A166.68,166.68,0,0,1,157.01,65.036Zm-9.555-34.963h18.71l-4.368-3.38H151.322Zm-146.3,32.5a4,4,0,0,1,.032-5.656l35.187-34.8L51.519,6.971a23.858,23.858,0,0,1,33.708,0L100.36,22.106l22.17,21.781a4,4,0,1,1-5.611,5.7l-19.337-19L95.129,33.04a15.289,15.289,0,0,1-21.594,0,7.426,7.426,0,0,0-10.306-.02l-.021.02a15.3,15.3,0,0,1-21.6,0L39.176,30.6,6.812,62.6a4,4,0,0,1-5.656-.031Zm78-35.259a7.343,7.343,0,0,0,10.327.02l2.4-2.388L79.571,12.627a15.862,15.862,0,0,0-22.4,0L44.855,24.945l2.4,2.388a7.22,7.22,0,0,0,4.387,2.039,7.889,7.889,0,0,0,1.3.024,7.263,7.263,0,0,0,4.615-2.064,15.359,15.359,0,0,1,21.594-.02Z" transform="translate(3693 4204)" fill="#08354a" stroke="rgba(0,0,0,0)" stroke-miterlimit="10" stroke-width="1"/>
    <rect id="Rectangle_339" data-name="Rectangle 339" width="260" height="260" transform="translate(3664 4153)" fill="none"/>
  </g>
</svg>
