<svg xmlns="http://www.w3.org/2000/svg" width="260" height="260" viewBox="0 0 260 260">
  <g id="all-weather" transform="translate(-2260 -4153)">
    <path id="Union_53" data-name="Union 53" d="M107.328,200.855c0-6.079,7.631-13.49,9.967-15.618a4.008,4.008,0,0,1,5.383,0c2.336,2.128,9.967,9.538,9.967,15.618a12.658,12.658,0,1,1-25.317,0Zm-40,0c0-6.079,7.631-13.49,9.967-15.618a4.009,4.009,0,0,1,5.384,0c2.336,2.128,9.967,9.538,9.967,15.618a12.659,12.659,0,1,1-25.317,0Zm-40,0c0-6.079,7.631-13.49,9.967-15.618a4.009,4.009,0,0,1,5.384,0c2.335,2.128,9.967,9.538,9.967,15.618a12.659,12.659,0,1,1-25.317,0ZM34.385,168.2c-17.218,0-32.42-12.614-34.2-29.736A33.312,33.312,0,0,1,26.67,102.275c0-.224-.032-.44-.032-.664A23.222,23.222,0,0,1,61.43,81.394a23.2,23.2,0,0,1,8.69,10.25,4.393,4.393,0,0,0,2.3,2.263,4.382,4.382,0,0,0,3.311-.084,4.353,4.353,0,0,0,2.1-5.487A31.583,31.583,0,0,0,66.9,75,39.7,39.7,0,0,1,96.224,61.676a35.965,35.965,0,1,1,35.491,42.343H131.7a3.965,3.965,0,0,1-1.432-.268l-.332.355h-.068a4.188,4.188,0,0,0,0,8.375,29.987,29.987,0,0,1,29.849,27.641,30.043,30.043,0,0,1-29.873,28.08ZM104.224,62.4a39.966,39.966,0,0,1,31.8,33.241,27.978,27.978,0,1,0-31.8-33.241Zm69.76,53.73-8.487-8.483a4.038,4.038,0,1,1,5.71-5.71l8.487,8.482a4.038,4.038,0,1,1-5.71,5.711Zm9.6-44.062a4.04,4.04,0,0,1,0-8.079h12a4.04,4.04,0,1,1,0,8.079ZM165.5,34.116a4.069,4.069,0,0,1,0-5.711l8.486-8.483a4.037,4.037,0,1,1,5.708,5.711l-8.483,8.483a4.036,4.036,0,0,1-5.71,0Zm-73.527,0-8.482-8.483A4.039,4.039,0,0,1,89.2,19.922L97.681,28.4a4.039,4.039,0,1,1-5.711,5.711Zm35.58-18.082v-12a4.04,4.04,0,0,1,8.079,0v12a4.04,4.04,0,0,1-8.079,0Z" transform="translate(2290 4176)" fill="#08354a" stroke="rgba(0,0,0,0)" stroke-miterlimit="10" stroke-width="1"/>
    <rect id="Rectangle_335" data-name="Rectangle 335" width="260" height="260" transform="translate(2260 4153)" fill="none"/>
  </g>
</svg>
